<svg width="62" height="17" viewBox="0 0 62 17" fill="none" xmlns="http://www.w3.org/2000/svg">
<path d="M3.71 16.32C2.62333 16.32 1.75 15.98 1.09 15.3C0.436667 14.62 0.11 13.7267 0.11 12.62V12.02H2.01V12.62C2.01 13.16 2.16333 13.5967 2.47 13.93C2.77667 14.2567 3.19 14.42 3.71 14.42C4.23 14.42 4.64333 14.2567 4.95 13.93C5.25667 13.5967 5.41 13.16 5.41 12.62V11.36C5.41 11.0533 5.4 10.8133 5.38 10.64C5.36 10.46 5.3 10.3167 5.2 10.21C5.1 10.1033 4.93333 10.0033 4.7 9.91C4.46667 9.81 4.13667 9.69333 3.71 9.56C2.81 9.27333 2.11333 9.03333 1.62 8.84C1.12667 8.64 0.773333 8.43 0.56 8.21C0.346667 7.98333 0.216667 7.69 0.17 7.33C0.13 6.97 0.11 6.48 0.11 5.86V4.38C0.11 3.26667 0.436667 2.37333 1.09 1.7C1.75 1.02 2.62333 0.679999 3.71 0.679999C4.80333 0.679999 5.67667 1.02 6.33 1.7C6.98333 2.37333 7.31 3.26667 7.31 4.38V4.98H5.41V4.38C5.41 3.84 5.25667 3.40667 4.95 3.08C4.64333 2.74667 4.23 2.58 3.71 2.58C3.19 2.58 2.77667 2.74667 2.47 3.08C2.16333 3.40667 2.01 3.84 2.01 4.38V5.86C2.01 6.16 2.02 6.4 2.04 6.58C2.06667 6.75333 2.12667 6.89667 2.22 7.01C2.32 7.11667 2.48667 7.21667 2.72 7.31C2.96 7.40333 3.29 7.52 3.71 7.66C4.61 7.94667 5.30667 8.18667 5.8 8.38C6.29333 8.57333 6.64667 8.78333 6.86 9.01C7.07333 9.23 7.2 9.52 7.24 9.88C7.28667 10.24 7.31 10.7333 7.31 11.36V12.62C7.31 13.7267 6.98333 14.62 6.33 15.3C5.67667 15.98 4.80333 16.32 3.71 16.32ZM9.73453 16V5.1H11.5345V16H9.73453ZM9.73453 4.03V1.6H11.5345V4.03H9.73453ZM18.2872 16.13C17.2472 16.13 16.4105 15.81 15.7772 15.17C15.1505 14.5233 14.8372 13.6467 14.8372 12.54V6.77H12.9372V5.09H14.8372V2.4H16.6372V5.09H19.1372V6.77H16.6372V12.54C16.6372 13.08 16.7872 13.5133 17.0872 13.84C17.3872 14.1667 17.7872 14.33 18.2872 14.33H19.1372V16.13H18.2872ZM24.0659 16.25C23.3793 16.25 22.7759 16.1 22.2559 15.8C21.7359 15.5 21.3293 15.08 21.0359 14.54C20.7493 14 20.6059 13.3733 20.6059 12.66V8.43C20.6059 7.71667 20.7493 7.09 21.0359 6.55C21.3293 6.01 21.7359 5.59333 22.2559 5.3C22.7759 5 23.3793 4.85 24.0659 4.85C25.1059 4.85 25.9393 5.18 26.5659 5.84C27.1926 6.49333 27.5059 7.35667 27.5059 8.43V10.91H22.1059V9.21H25.7059V8.33C25.7059 7.82333 25.5593 7.41667 25.2659 7.11C24.9793 6.80333 24.5793 6.65 24.0659 6.65C23.5593 6.65 23.1559 6.80333 22.8559 7.11C22.5559 7.41667 22.4059 7.82333 22.4059 8.33V12.76C22.4059 13.26 22.5559 13.6667 22.8559 13.98C23.1559 14.2933 23.5593 14.45 24.0659 14.45C24.5793 14.45 24.9793 14.2933 25.2659 13.98C25.5593 13.6667 25.7059 13.26 25.7059 12.76V12.46H27.5059V12.66C27.5059 13.7333 27.1926 14.6 26.5659 15.26C25.9393 15.92 25.1059 16.25 24.0659 16.25ZM34.2658 16V5.1H36.0658V16H34.2658ZM34.2658 4.03V1.6H36.0658V4.03H34.2658ZM38.7384 16V5.1H40.5384V6.65L40.2184 6.29C40.4584 5.81667 40.7851 5.46 41.1984 5.22C41.6184 4.97333 42.1018 4.85 42.6484 4.85C43.5284 4.85 44.2284 5.16 44.7484 5.78C45.2751 6.4 45.5384 7.25 45.5384 8.33V16H43.7384V8.33C43.7384 7.82333 43.5951 7.41667 43.3084 7.11C43.0218 6.80333 42.6351 6.65 42.1484 6.65C41.6551 6.65 41.2618 6.80333 40.9684 7.11C40.6818 7.41667 40.5384 7.82333 40.5384 8.33V16H38.7384ZM48.8339 16V6.78H46.8239V5.1H48.8339V4.39C48.8339 3.69 48.9772 3.07 49.2639 2.53C49.5506 1.99 49.9506 1.56667 50.4639 1.26C50.9839 0.953332 51.5939 0.799999 52.2939 0.799999H53.1639V2.6H52.2939C51.7872 2.6 51.3839 2.76333 51.0839 3.09C50.7839 3.41667 50.6339 3.85 50.6339 4.39V5.1H53.1639V6.78H50.6339V16H48.8339ZM57.7183 16.25C57.0316 16.25 56.4283 16.1 55.9083 15.8C55.3883 15.5 54.9816 15.08 54.6883 14.54C54.4016 14 54.2583 13.3733 54.2583 12.66V8.43C54.2583 7.71667 54.4016 7.09 54.6883 6.55C54.9816 6.01 55.3883 5.59333 55.9083 5.3C56.4283 5 57.0316 4.85 57.7183 4.85C58.7583 4.85 59.5916 5.18 60.2183 5.84C60.8449 6.49333 61.1583 7.35667 61.1583 8.43V12.66C61.1583 13.7333 60.8449 14.6 60.2183 15.26C59.5916 15.92 58.7583 16.25 57.7183 16.25ZM57.7183 14.45C58.2316 14.45 58.6316 14.2933 58.9183 13.98C59.2116 13.6667 59.3583 13.26 59.3583 12.76V8.33C59.3583 7.82333 59.2116 7.41667 58.9183 7.11C58.6316 6.80333 58.2316 6.65 57.7183 6.65C57.2116 6.65 56.8083 6.80333 56.5083 7.11C56.2083 7.41667 56.0583 7.82333 56.0583 8.33V12.76C56.0583 13.26 56.2083 13.6667 56.5083 13.98C56.8083 14.2933 57.2116 14.45 57.7183 14.45Z" fill="#DD1B1B"/>
</svg>
