<svg width="55" height="30" viewBox="0 0 55 30" fill="none" xmlns="http://www.w3.org/2000/svg">
<path d="M5.37641 21H3.47641V6H5.37641V21ZM8.37125 21V10.1H10.1713V11.62L9.86125 11.22C10.1013 10.78 10.4213 10.4433 10.8213 10.21C11.2279 9.97 11.7113 9.85 12.2713 9.85C12.9179 9.85 13.4946 10.0167 14.0013 10.35C14.5146 10.6833 14.8613 11.21 15.0413 11.93L14.5913 11.85C14.7913 11.23 15.1146 10.7433 15.5613 10.39C16.0146 10.03 16.5846 9.85 17.2713 9.85C17.8046 9.85 18.2913 9.96667 18.7313 10.2C19.1713 10.4267 19.5213 10.7767 19.7813 11.25C20.0413 11.7167 20.1713 12.31 20.1713 13.03V21H18.3713V13.33C18.3713 12.8233 18.2279 12.4167 17.9413 12.11C17.6546 11.8033 17.2679 11.65 16.7813 11.65C16.2879 11.65 15.8946 11.8033 15.6013 12.11C15.3146 12.4167 15.1713 12.8233 15.1713 13.33V21H13.3713V13.33C13.3713 12.8233 13.2279 12.4167 12.9413 12.11C12.6546 11.8033 12.2679 11.65 11.7813 11.65C11.2879 11.65 10.8946 11.8033 10.6013 12.11C10.3146 12.4167 10.1713 12.8233 10.1713 13.33V21H8.37125ZM22.7463 24.6V10.1H24.5463V11.6L24.2363 11.19C24.4696 10.7633 24.7863 10.4333 25.1863 10.2C25.5863 9.96667 26.0696 9.85 26.6363 9.85C27.1829 9.85 27.6796 9.97 28.1263 10.21C28.5796 10.45 28.9429 10.8267 29.2163 11.34C29.4896 11.8533 29.6263 12.5167 29.6263 13.33V17.76C29.6263 18.5733 29.4896 19.2367 29.2163 19.75C28.9429 20.2633 28.5796 20.6433 28.1263 20.89C27.6796 21.13 27.1829 21.25 26.6363 21.25C26.0696 21.25 25.5863 21.1333 25.1863 20.9C24.7863 20.66 24.4696 20.33 24.2363 19.91L24.5463 19.5V24.6H22.7463ZM26.1763 19.45C26.6963 19.45 27.0996 19.2933 27.3863 18.98C27.6796 18.6667 27.8263 18.26 27.8263 17.76V13.33C27.8263 12.8233 27.6796 12.4167 27.3863 12.11C27.0996 11.8033 26.6963 11.65 26.1763 11.65C25.6629 11.65 25.2629 11.8033 24.9763 12.11C24.6896 12.4167 24.5463 12.8233 24.5463 13.33V17.77C24.5463 18.27 24.6896 18.6767 24.9763 18.99C25.2629 19.2967 25.6629 19.45 26.1763 19.45ZM34.4131 21.25C33.4531 21.25 32.7098 20.9733 32.1831 20.42C31.6631 19.86 31.4031 19.15 31.4031 18.29C31.4031 17.7767 31.4898 17.3467 31.6631 17C31.8431 16.6467 32.0731 16.36 32.3531 16.14C32.6398 15.9133 32.9465 15.7267 33.2731 15.58C33.6598 15.4067 34.0531 15.2667 34.4531 15.16C34.8598 15.0467 35.2331 14.9333 35.5731 14.82C35.9131 14.7 36.1865 14.5467 36.3931 14.36C36.6065 14.1667 36.7131 13.9033 36.7131 13.57V13.33C36.7131 12.8233 36.5631 12.4167 36.2631 12.11C35.9698 11.8033 35.5665 11.65 35.0531 11.65C34.5465 11.65 34.1465 11.8033 33.8531 12.11C33.5598 12.4167 33.4131 12.8233 33.4131 13.33V13.73H31.6131V13.43C31.6131 12.3567 31.9265 11.4933 32.5531 10.84C33.1865 10.18 34.0198 9.85 35.0531 9.85C35.7465 9.85 36.3498 10 36.8631 10.3C37.3831 10.5933 37.7865 11.01 38.0731 11.55C38.3665 12.09 38.5131 12.7167 38.5131 13.43V21H36.7131V19.43L37.0231 19.83C36.7898 20.2833 36.4498 20.6333 36.0031 20.88C35.5631 21.1267 35.0331 21.25 34.4131 21.25ZM34.8931 19.56C35.4398 19.56 35.8798 19.4067 36.2131 19.1C36.5465 18.7867 36.7131 18.32 36.7131 17.7V15.91C36.3865 16.13 36.0131 16.2833 35.5931 16.37C35.1798 16.4567 34.7765 16.5733 34.3831 16.72C34.0298 16.8533 33.7431 17.0267 33.5231 17.24C33.3098 17.4533 33.2031 17.7467 33.2031 18.12C33.2031 18.5267 33.3465 18.87 33.6331 19.15C33.9265 19.4233 34.3465 19.56 34.8931 19.56ZM44.1675 21.25C43.4808 21.25 42.8775 21.1 42.3575 20.8C41.8375 20.5 41.4308 20.08 41.1375 19.54C40.8508 19 40.7075 18.3733 40.7075 17.66V13.43C40.7075 12.7167 40.8508 12.09 41.1375 11.55C41.4308 11.01 41.8375 10.5933 42.3575 10.3C42.8775 10 43.4808 9.85 44.1675 9.85C45.2075 9.85 46.0408 10.18 46.6675 10.84C47.2942 11.4933 47.6075 12.3567 47.6075 13.43V13.63H45.8075V13.33C45.8075 12.8233 45.6608 12.4167 45.3675 12.11C45.0808 11.8033 44.6808 11.65 44.1675 11.65C43.6608 11.65 43.2575 11.8033 42.9575 12.11C42.6575 12.4167 42.5075 12.8233 42.5075 13.33V17.76C42.5075 18.26 42.6575 18.6667 42.9575 18.98C43.2575 19.2933 43.6608 19.45 44.1675 19.45C44.6808 19.45 45.0808 19.2933 45.3675 18.98C45.6608 18.6667 45.8075 18.26 45.8075 17.76V17.46H47.6075V17.66C47.6075 18.7333 47.2942 19.6 46.6675 20.26C46.0408 20.92 45.2075 21.25 44.1675 21.25ZM53.7013 21.13C52.6613 21.13 51.8246 20.81 51.1913 20.17C50.5646 19.5233 50.2513 18.6467 50.2513 17.54V11.77H48.3513V10.09H50.2513V7.4H52.0513V10.09H54.5513V11.77H52.0513V17.54C52.0513 18.08 52.2013 18.5133 52.5013 18.84C52.8013 19.1667 53.2013 19.33 53.7013 19.33H54.5513V21.13H53.7013Z" fill="#DD1B1B"/>
</svg>
