<svg width="103" height="56" viewBox="0 0 103 56" fill="none" xmlns="http://www.w3.org/2000/svg">
<g filter="url(#filter0_d_1_194)">
<rect x="2" y="1" width="99" height="52" rx="8" fill="#F0FAFF" shape-rendering="crispEdges"/>
<path d="M27.248 32V20H30.128C31.0187 20 31.728 20.272 32.256 20.816C32.784 21.3547 33.048 22.0693 33.048 22.96V29.04C33.048 29.9253 32.784 30.64 32.256 31.184C31.728 31.728 31.0187 32 30.128 32H27.248ZM29.088 30.16H30.128C30.464 30.16 30.728 30.0587 30.92 29.856C31.112 29.648 31.208 29.376 31.208 29.04V22.96C31.208 22.624 31.112 22.3547 30.92 22.152C30.728 21.944 30.464 21.84 30.128 21.84H29.088V30.16ZM35.0705 32V23.24H36.7905V32H35.0705ZM35.0705 22.488V20.48H36.7905V22.488H35.0705ZM41.2129 32.2C40.3489 32.2 39.6662 31.9413 39.1649 31.424C38.6635 30.9013 38.4129 30.2133 38.4129 29.36V29.16H40.1329V29.48C40.1329 29.784 40.2262 30.0267 40.4129 30.208C40.5995 30.3893 40.8555 30.48 41.1809 30.48C41.5062 30.48 41.7595 30.3867 41.9409 30.2C42.1222 30.008 42.2129 29.736 42.2129 29.384C42.2129 29.1813 42.1755 29.0187 42.1009 28.896C42.0315 28.7733 41.9222 28.6747 41.7729 28.6C41.6235 28.5253 41.4235 28.4613 41.1729 28.408C40.6182 28.2853 40.1329 28.152 39.7169 28.008C39.3009 27.864 38.9782 27.6373 38.7489 27.328C38.5249 27.0133 38.4129 26.544 38.4129 25.92C38.4129 24.992 38.6609 24.28 39.1569 23.784C39.6582 23.2827 40.3195 23.032 41.1409 23.032C42.0049 23.032 42.6849 23.2933 43.1809 23.816C43.6822 24.3333 43.9329 25.0187 43.9329 25.872V26.072H42.2129V25.752C42.2129 25.4533 42.1195 25.2133 41.9329 25.032C41.7515 24.8453 41.4955 24.752 41.1649 24.752C40.8449 24.752 40.5915 24.848 40.4049 25.04C40.2235 25.2267 40.1329 25.4933 40.1329 25.84C40.1329 26.0427 40.1675 26.2053 40.2369 26.328C40.3062 26.4507 40.4182 26.5493 40.5729 26.624C40.7275 26.6987 40.9275 26.7627 41.1729 26.816C41.7115 26.9333 42.1862 27.064 42.5969 27.208C43.0129 27.3467 43.3382 27.5733 43.5729 27.888C43.8129 28.2027 43.9329 28.6773 43.9329 29.312C43.9329 30.2347 43.6849 30.9467 43.1889 31.448C42.6982 31.9493 42.0395 32.2 41.2129 32.2ZM48.0673 32.2C47.5073 32.2 47.0193 32.08 46.6033 31.84C46.1873 31.5947 45.8619 31.2533 45.6273 30.816C45.3979 30.3787 45.2833 29.8693 45.2833 29.288V25.944C45.2833 25.368 45.3979 24.8613 45.6273 24.424C45.8619 23.9813 46.1873 23.64 46.6033 23.4C47.0193 23.1547 47.5073 23.032 48.0673 23.032C48.9099 23.032 49.5819 23.2987 50.0833 23.832C50.5899 24.3653 50.8433 25.0693 50.8433 25.944V26.104H49.1233V25.824C49.1233 25.504 49.0299 25.2453 48.8433 25.048C48.6566 24.8507 48.3979 24.752 48.0673 24.752C47.7366 24.752 47.4753 24.8507 47.2833 25.048C47.0966 25.2453 47.0033 25.504 47.0033 25.824V29.408C47.0033 29.728 47.0966 29.9867 47.2833 30.184C47.4753 30.3813 47.7366 30.48 48.0673 30.48C48.3979 30.48 48.6566 30.3813 48.8433 30.184C49.0299 29.9867 49.1233 29.728 49.1233 29.408V29.128H50.8433V29.288C50.8433 30.1573 50.5899 30.8613 50.0833 31.4C49.5819 31.9333 48.9099 32.2 48.0673 32.2ZM54.8641 32.2C54.3041 32.2 53.8161 32.08 53.4001 31.84C52.9841 31.5947 52.6588 31.2533 52.4241 30.816C52.1948 30.3787 52.0801 29.8693 52.0801 29.288V25.944C52.0801 25.368 52.1948 24.8613 52.4241 24.424C52.6588 23.9813 52.9841 23.64 53.4001 23.4C53.8161 23.1547 54.3041 23.032 54.8641 23.032C55.7068 23.032 56.3788 23.2987 56.8801 23.832C57.3868 24.3653 57.6401 25.0693 57.6401 25.944V29.288C57.6401 30.1573 57.3868 30.8613 56.8801 31.4C56.3788 31.9333 55.7068 32.2 54.8641 32.2ZM54.8641 30.48C55.1948 30.48 55.4535 30.3813 55.6401 30.184C55.8268 29.9867 55.9201 29.728 55.9201 29.408V25.824C55.9201 25.504 55.8268 25.2453 55.6401 25.048C55.4535 24.8507 55.1948 24.752 54.8641 24.752C54.5335 24.752 54.2721 24.8507 54.0801 25.048C53.8935 25.2453 53.8001 25.504 53.8001 25.824V29.408C53.8001 29.728 53.8935 29.9867 54.0801 30.184C54.2721 30.3813 54.5335 30.48 54.8641 30.48ZM60.8063 32L58.4623 23.24H60.3263L62.0143 30.04H61.6303L63.2703 23.24H65.1343L62.8303 32H60.8063ZM68.7079 32.2C68.1479 32.2 67.6599 32.08 67.2439 31.84C66.8279 31.5947 66.5025 31.2533 66.2679 30.816C66.0385 30.3787 65.9239 29.8693 65.9239 29.288V25.944C65.9239 25.368 66.0385 24.8613 66.2679 24.424C66.5025 23.9813 66.8279 23.64 67.2439 23.4C67.6599 23.1547 68.1479 23.032 68.7079 23.032C69.5505 23.032 70.2225 23.2987 70.7239 23.832C71.2305 24.3653 71.4839 25.0693 71.4839 25.944V28.016H67.3959V26.416H69.7639V25.824C69.7639 25.504 69.6705 25.2453 69.4839 25.048C69.2972 24.8507 69.0385 24.752 68.7079 24.752C68.3772 24.752 68.1159 24.8507 67.9239 25.048C67.7372 25.2453 67.6439 25.504 67.6439 25.824V29.408C67.6439 29.728 67.7372 29.9867 67.9239 30.184C68.1159 30.3813 68.3772 30.48 68.7079 30.48C69.0385 30.48 69.2972 30.3813 69.4839 30.184C69.6705 29.9867 69.7639 29.728 69.7639 29.408V29.128H71.4839V29.288C71.4839 30.1573 71.2305 30.8613 70.7239 31.4C70.2225 31.9333 69.5505 32.2 68.7079 32.2ZM73.2111 32V23.24H74.9311V24.616L74.6191 24.248C74.8058 23.8747 75.0618 23.5947 75.3871 23.408C75.7125 23.2213 76.0885 23.128 76.5151 23.128H76.9071V24.848H75.9791C75.6538 24.848 75.3978 24.936 75.2111 25.112C75.0245 25.2827 74.9311 25.528 74.9311 25.848V32H73.2111Z" fill="#090303"/>
</g>
<defs>
<filter id="filter0_d_1_194" x="0" y="0" width="103" height="56" filterUnits="userSpaceOnUse" color-interpolation-filters="sRGB">
<feFlood flood-opacity="0" result="BackgroundImageFix"/>
<feColorMatrix in="SourceAlpha" type="matrix" values="0 0 0 0 0 0 0 0 0 0 0 0 0 0 0 0 0 0 127 0" result="hardAlpha"/>
<feOffset dy="1"/>
<feGaussianBlur stdDeviation="1"/>
<feComposite in2="hardAlpha" operator="out"/>
<feColorMatrix type="matrix" values="0 0 0 0 0 0 0 0 0 0 0 0 0 0 0 0 0 0 0.05 0"/>
<feBlend mode="normal" in2="BackgroundImageFix" result="effect1_dropShadow_1_194"/>
<feBlend mode="normal" in="SourceGraphic" in2="effect1_dropShadow_1_194" result="shape"/>
</filter>
</defs>
</svg>
