<svg width="68" height="30" viewBox="0 0 68 30" fill="none" xmlns="http://www.w3.org/2000/svg">
<path d="M8.34518 21V6H10.2452V13.6H13.3452V6H15.2452V21H13.3452V15.5H10.2452V21H8.34518ZM18.24 21V10.1H20.04V21H18.24ZM18.24 9.03V6.6H20.04V9.03H18.24ZM25.6627 21.25C24.6094 21.25 23.7694 20.9367 23.1427 20.31C22.516 19.6833 22.2027 18.86 22.2027 17.84V17.54H24.0027V17.95C24.0027 18.3967 24.1494 18.76 24.4427 19.04C24.7427 19.3133 25.1427 19.45 25.6427 19.45C26.1227 19.45 26.5027 19.31 26.7827 19.03C27.0627 18.75 27.2027 18.35 27.2027 17.83C27.2027 17.5033 27.1427 17.25 27.0227 17.07C26.9094 16.89 26.7327 16.75 26.4927 16.65C26.2594 16.55 25.966 16.4633 25.6127 16.39C24.9327 16.2367 24.336 16.0733 23.8227 15.9C23.316 15.7267 22.9194 15.45 22.6327 15.07C22.346 14.6833 22.2027 14.11 22.2027 13.35C22.2027 12.2233 22.5094 11.36 23.1227 10.76C23.7427 10.1533 24.5594 9.85 25.5727 9.85C26.6327 9.85 27.4694 10.16 28.0827 10.78C28.696 11.4 29.0027 12.2233 29.0027 13.25V13.54H27.2027V13.15C27.2027 12.69 27.0594 12.3267 26.7727 12.06C26.486 11.7867 26.096 11.65 25.6027 11.65C25.116 11.65 24.726 11.79 24.4327 12.07C24.146 12.3433 24.0027 12.7433 24.0027 13.27C24.0027 13.59 24.0627 13.84 24.1827 14.02C24.3027 14.2 24.4827 14.34 24.7227 14.44C24.9627 14.5333 25.2594 14.62 25.6127 14.7C26.2794 14.84 26.866 15 27.3727 15.18C27.8794 15.3533 28.276 15.6333 28.5627 16.02C28.856 16.4 29.0027 16.9767 29.0027 17.75C29.0027 18.87 28.6994 19.7333 28.0927 20.34C27.486 20.9467 26.676 21.25 25.6627 21.25ZM35.2497 21.13C34.2097 21.13 33.373 20.81 32.7397 20.17C32.113 19.5233 31.7997 18.6467 31.7997 17.54V11.77H29.8997V10.09H31.7997V7.4H33.5997V10.09H36.0997V11.77H33.5997V17.54C33.5997 18.08 33.7497 18.5133 34.0497 18.84C34.3497 19.1667 34.7497 19.33 35.2497 19.33H36.0997V21.13H35.2497ZM41.0285 21.25C40.3418 21.25 39.7385 21.1 39.2185 20.8C38.6985 20.5 38.2918 20.08 37.9985 19.54C37.7118 19 37.5685 18.3733 37.5685 17.66V13.43C37.5685 12.7167 37.7118 12.09 37.9985 11.55C38.2918 11.01 38.6985 10.5933 39.2185 10.3C39.7385 10 40.3418 9.85 41.0285 9.85C42.0685 9.85 42.9018 10.18 43.5285 10.84C44.1551 11.4933 44.4685 12.3567 44.4685 13.43V17.66C44.4685 18.7333 44.1551 19.6 43.5285 20.26C42.9018 20.92 42.0685 21.25 41.0285 21.25ZM41.0285 19.45C41.5418 19.45 41.9418 19.2933 42.2285 18.98C42.5218 18.6667 42.6685 18.26 42.6685 17.76V13.33C42.6685 12.8233 42.5218 12.4167 42.2285 12.11C41.9418 11.8033 41.5418 11.65 41.0285 11.65C40.5218 11.65 40.1185 11.8033 39.8185 12.11C39.5185 12.4167 39.3685 12.8233 39.3685 13.33V17.76C39.3685 18.26 39.5185 18.6667 39.8185 18.98C40.1185 19.2933 40.5218 19.45 41.0285 19.45ZM46.8338 21V10.1H48.6338V11.74L48.3138 11.36C48.5538 10.9 48.8804 10.5533 49.2938 10.32C49.7138 10.0867 50.1938 9.97 50.7338 9.97H51.2138V11.77H50.2438C49.7504 11.77 49.3571 11.9133 49.0638 12.2C48.7771 12.4867 48.6338 12.8833 48.6338 13.39V21H46.8338ZM53.555 24.6L54.525 21.15L51.415 10.1H53.375L55.705 18.84H55.295L57.575 10.1H59.545L55.435 24.6H53.555Z" fill="#DD1B1B"/>
</svg>
