<svg width="54" height="30" viewBox="0 0 54 30" fill="none" xmlns="http://www.w3.org/2000/svg">
<path d="M6.62588 21V6H8.52588V13.6H11.6259V6H13.5259V21H11.6259V15.5H8.52588V21H6.62588ZM19.6607 21.25C18.9741 21.25 18.3707 21.1 17.8507 20.8C17.3307 20.5 16.9241 20.08 16.6307 19.54C16.3441 19 16.2007 18.3733 16.2007 17.66V13.43C16.2007 12.7167 16.3441 12.09 16.6307 11.55C16.9241 11.01 17.3307 10.5933 17.8507 10.3C18.3707 10 18.9741 9.85 19.6607 9.85C20.7007 9.85 21.5341 10.18 22.1607 10.84C22.7874 11.4933 23.1007 12.3567 23.1007 13.43V17.66C23.1007 18.7333 22.7874 19.6 22.1607 20.26C21.5341 20.92 20.7007 21.25 19.6607 21.25ZM19.6607 19.45C20.1741 19.45 20.5741 19.2933 20.8607 18.98C21.1541 18.6667 21.3007 18.26 21.3007 17.76V13.33C21.3007 12.8233 21.1541 12.4167 20.8607 12.11C20.5741 11.8033 20.1741 11.65 19.6607 11.65C19.1541 11.65 18.7507 11.8033 18.4507 12.11C18.1507 12.4167 18.0007 12.8233 18.0007 13.33V17.76C18.0007 18.26 18.1507 18.6667 18.4507 18.98C18.7507 19.2933 19.1541 19.45 19.6607 19.45ZM25.466 21V10.1H27.266V11.62L26.956 11.22C27.196 10.78 27.516 10.4433 27.916 10.21C28.3227 9.97 28.806 9.85 29.366 9.85C30.0127 9.85 30.5894 10.0167 31.096 10.35C31.6094 10.6833 31.956 11.21 32.136 11.93L31.686 11.85C31.886 11.23 32.2094 10.7433 32.656 10.39C33.1094 10.03 33.6794 9.85 34.366 9.85C34.8994 9.85 35.386 9.96667 35.826 10.2C36.266 10.4267 36.616 10.7767 36.876 11.25C37.136 11.7167 37.266 12.31 37.266 13.03V21H35.466V13.33C35.466 12.8233 35.3227 12.4167 35.036 12.11C34.7494 11.8033 34.3627 11.65 33.876 11.65C33.3827 11.65 32.9894 11.8033 32.696 12.11C32.4094 12.4167 32.266 12.8233 32.266 13.33V21H30.466V13.33C30.466 12.8233 30.3227 12.4167 30.036 12.11C29.7494 11.8033 29.3627 11.65 28.876 11.65C28.3827 11.65 27.9894 11.8033 27.696 12.11C27.4094 12.4167 27.266 12.8233 27.266 13.33V21H25.466ZM42.981 21.25C42.2944 21.25 41.691 21.1 41.171 20.8C40.651 20.5 40.2444 20.08 39.951 19.54C39.6644 19 39.521 18.3733 39.521 17.66V13.43C39.521 12.7167 39.6644 12.09 39.951 11.55C40.2444 11.01 40.651 10.5933 41.171 10.3C41.691 10 42.2944 9.85 42.981 9.85C44.021 9.85 44.8544 10.18 45.481 10.84C46.1077 11.4933 46.421 12.3567 46.421 13.43V15.91H41.021V14.21H44.621V13.33C44.621 12.8233 44.4744 12.4167 44.181 12.11C43.8944 11.8033 43.4944 11.65 42.981 11.65C42.4744 11.65 42.071 11.8033 41.771 12.11C41.471 12.4167 41.321 12.8233 41.321 13.33V17.76C41.321 18.26 41.471 18.6667 41.771 18.98C42.071 19.2933 42.4744 19.45 42.981 19.45C43.4944 19.45 43.8944 19.2933 44.181 18.98C44.4744 18.6667 44.621 18.26 44.621 17.76V17.46H46.421V17.66C46.421 18.7333 46.1077 19.6 45.481 20.26C44.8544 20.92 44.021 21.25 42.981 21.25Z" fill="#DD1B1B"/>
</svg>
