<svg width="800" height="61" viewBox="0 0 800 61" fill="none" xmlns="http://www.w3.org/2000/svg">
<g clip-path="url(#clip0_1_189)">
<rect width="800" height="61" fill="#0D2045"/>
<g filter="url(#filter0_d_1_189)">
<path d="M31.292 41V21.425H27.551V19.25H37.1935V21.425H33.467V41H31.292ZM39.7924 41V19.25H41.8949V27.3265L41.5469 26.877C41.9046 26.2487 42.3831 25.7605 42.9824 25.4125C43.5914 25.0645 44.3067 24.8905 45.1284 24.8905C45.9597 24.8905 46.7041 25.079 47.3614 25.456C48.0284 25.8233 48.5504 26.3647 48.9274 27.08C49.3141 27.7953 49.5074 28.6702 49.5074 29.7045V41H47.4049V29.922C47.4049 29.0327 47.1536 28.3222 46.6509 27.7905C46.1579 27.2588 45.5006 26.993 44.6789 26.993C43.8379 26.993 43.1612 27.2588 42.6489 27.7905C42.1462 28.3222 41.8949 29.0327 41.8949 29.922V41H39.7924ZM57.9668 41.348C56.9808 41.348 56.1156 41.1353 55.3713 40.71C54.627 40.2847 54.0421 39.6902 53.6168 38.9265C53.1915 38.1532 52.9788 37.2542 52.9788 36.2295V30.009C52.9788 29.0037 53.1915 28.1192 53.6168 27.3555C54.0421 26.5822 54.627 25.9828 55.3713 25.5575C56.1156 25.1225 56.9808 24.905 57.9668 24.905C59.4458 24.905 60.6396 25.3738 61.5483 26.3115C62.457 27.2492 62.9113 28.4817 62.9113 30.009V33.4455H54.6608V31.4155H60.8088V29.9365C60.8088 29.0568 60.5526 28.3512 60.0403 27.8195C59.5376 27.2782 58.8465 27.0075 57.9668 27.0075C57.0871 27.0075 56.3863 27.2782 55.8643 27.8195C55.3423 28.3512 55.0813 29.0568 55.0813 29.9365V36.302C55.0813 37.1817 55.3423 37.8922 55.8643 38.4335C56.3863 38.9748 57.0871 39.2455 57.9668 39.2455C58.8465 39.2455 59.5376 38.9748 60.0403 38.4335C60.5526 37.8922 60.8088 37.1817 60.8088 36.302V35.9395H62.9113V36.2295C62.9113 37.7568 62.457 38.9942 61.5483 39.9415C60.6396 40.8792 59.4458 41.348 57.9668 41.348ZM74.9053 41V21.425H71.1643V19.25H80.8068V21.425H77.0803V41H74.9053ZM87.3633 41.348C86.3773 41.348 85.5121 41.1353 84.7678 40.71C84.0234 40.2847 83.4386 39.6902 83.0133 38.9265C82.5879 38.1532 82.3753 37.2542 82.3753 36.2295V30.009C82.3753 29.0037 82.5879 28.1192 83.0133 27.3555C83.4386 26.5822 84.0234 25.9828 84.7678 25.5575C85.5121 25.1225 86.3773 24.905 87.3633 24.905C88.8423 24.905 90.0361 25.3738 90.9448 26.3115C91.8534 27.2492 92.3078 28.4817 92.3078 30.009V36.2295C92.3078 37.7568 91.8534 38.9942 90.9448 39.9415C90.0361 40.8792 88.8423 41.348 87.3633 41.348ZM87.3633 39.2455C88.2429 39.2455 88.9341 38.9748 89.4368 38.4335C89.9491 37.8922 90.2053 37.1817 90.2053 36.302V29.9365C90.2053 29.0568 89.9491 28.3512 89.4368 27.8195C88.9341 27.2782 88.2429 27.0075 87.3633 27.0075C86.4836 27.0075 85.7828 27.2782 85.2608 27.8195C84.7388 28.3512 84.4778 29.0568 84.4778 29.9365V36.302C84.4778 37.1817 84.7388 37.8922 85.2608 38.4335C85.7828 38.9748 86.4836 39.2455 87.3633 39.2455ZM97.2027 46.22L98.6237 41.319L94.0417 25.2675H96.3327L100.059 38.5495H99.5517L103.22 25.2675H105.54L99.4647 46.22H97.2027ZM112.229 41.348C111.243 41.348 110.377 41.1353 109.633 40.71C108.889 40.2847 108.304 39.6902 107.879 38.9265C107.453 38.1532 107.241 37.2542 107.241 36.2295V30.009C107.241 29.0037 107.453 28.1192 107.879 27.3555C108.304 26.5822 108.889 25.9828 109.633 25.5575C110.377 25.1225 111.243 24.905 112.229 24.905C113.708 24.905 114.901 25.3738 115.81 26.3115C116.719 27.2492 117.173 28.4817 117.173 30.009V36.2295C117.173 37.7568 116.719 38.9942 115.81 39.9415C114.901 40.8792 113.708 41.348 112.229 41.348ZM112.229 39.2455C113.108 39.2455 113.799 38.9748 114.302 38.4335C114.814 37.8922 115.071 37.1817 115.071 36.302V29.9365C115.071 29.0568 114.814 28.3512 114.302 27.8195C113.799 27.2782 113.108 27.0075 112.229 27.0075C111.349 27.0075 110.648 27.2782 110.126 27.8195C109.604 28.3512 109.343 29.0568 109.343 29.9365V36.302C109.343 37.1817 109.604 37.8922 110.126 38.4335C110.648 38.9748 111.349 39.2455 112.229 39.2455ZM126.747 41.174C125.248 41.174 124.045 40.7003 123.136 39.753C122.237 38.796 121.788 37.5152 121.788 35.9105V27.225H118.96V25.2385H121.788V21.28H123.89V25.2385H127.805V27.225H123.89V35.9105C123.89 36.8675 124.151 37.636 124.673 38.216C125.195 38.7863 125.886 39.0715 126.747 39.0715H127.805V41.174H126.747ZM134.07 41.348C132.62 41.348 131.499 40.9468 130.706 40.1445C129.913 39.3422 129.517 38.3272 129.517 37.0995C129.517 36.3358 129.657 35.7027 129.938 35.2C130.218 34.6877 130.576 34.272 131.011 33.953C131.455 33.634 131.924 33.3778 132.417 33.1845C133.007 32.9428 133.606 32.7543 134.215 32.619C134.834 32.474 135.404 32.3242 135.926 32.1695C136.448 32.0052 136.869 31.7828 137.188 31.5025C137.507 31.2222 137.666 30.8258 137.666 30.3135V29.9365C137.666 29.0568 137.4 28.3512 136.869 27.8195C136.347 27.2782 135.651 27.0075 134.781 27.0075C133.901 27.0075 133.205 27.2782 132.693 27.8195C132.19 28.3512 131.939 29.0568 131.939 29.9365V30.3715H129.836V30.009C129.836 28.4817 130.29 27.2492 131.199 26.3115C132.108 25.3738 133.302 24.905 134.781 24.905C135.757 24.905 136.617 25.1225 137.362 25.5575C138.116 25.9828 138.705 26.5773 139.131 27.341C139.556 28.1047 139.769 28.994 139.769 30.009V41H137.666V38.825L138.014 39.289C137.647 39.9463 137.13 40.4538 136.463 40.8115C135.796 41.1692 134.998 41.348 134.07 41.348ZM134.505 39.347C135.491 39.347 136.264 39.0715 136.825 38.5205C137.386 37.9598 137.666 37.1623 137.666 36.128V33.344C137.076 33.7113 136.419 33.9627 135.694 34.098C134.969 34.2237 134.278 34.3977 133.621 34.62C133.041 34.8133 132.562 35.0888 132.185 35.4465C131.808 35.7945 131.62 36.2923 131.62 36.94C131.62 37.6457 131.871 38.2257 132.374 38.68C132.876 39.1247 133.587 39.347 134.505 39.347ZM148.569 41L153.296 19.25H155.616L160.329 41H158.081L157.153 36.65H151.745L150.817 41H148.569ZM152.151 34.475H156.747L154.282 22.3675H154.63L152.151 34.475ZM172.45 19.25V21.425H165.852V29.0375H171.667V31.2125H165.852V38.825H172.45V41H163.677V19.25H172.45ZM180.747 41.464C179.2 41.464 177.953 40.971 177.006 39.985C176.068 38.999 175.599 37.7037 175.599 36.099V34.1705C175.599 33.1072 175.807 32.1792 176.223 31.3865C176.639 30.5842 177.223 29.9607 177.977 29.516L177.992 30.241C177.238 29.8157 176.648 29.2067 176.223 28.414C175.807 27.6117 175.599 26.6788 175.599 25.6155V24.151C175.599 22.5367 176.068 21.2413 177.006 20.265C177.953 19.279 179.2 18.786 180.747 18.786C182.303 18.786 183.55 19.279 184.488 20.265C185.426 21.2413 185.894 22.5367 185.894 24.151V25.6155C185.894 26.6788 185.682 27.6117 185.256 28.414C184.841 29.2067 184.251 29.8157 183.487 30.241L183.516 29.516C184.261 29.9607 184.841 30.5842 185.256 31.3865C185.682 32.1792 185.894 33.1072 185.894 34.1705V36.099C185.894 37.7037 185.426 38.999 184.488 39.985C183.55 40.971 182.303 41.464 180.747 41.464ZM180.747 39.289C181.646 39.289 182.366 38.999 182.907 38.419C183.449 37.8293 183.719 37.056 183.719 36.099V34.1705C183.719 33.2135 183.449 32.445 182.907 31.865C182.366 31.2753 181.646 30.9805 180.747 30.9805C179.848 30.9805 179.128 31.2753 178.586 31.865C178.045 32.445 177.774 33.2135 177.774 34.1705V36.099C177.774 37.056 178.045 37.8293 178.586 38.419C179.128 38.999 179.848 39.289 180.747 39.289ZM180.747 28.8055C181.646 28.8055 182.366 28.5155 182.907 27.9355C183.449 27.3458 183.719 26.5725 183.719 25.6155V24.151C183.719 23.194 183.449 22.4255 182.907 21.8455C182.366 21.2558 181.646 20.961 180.747 20.961C179.848 20.961 179.128 21.2558 178.586 21.8455C178.045 22.4255 177.774 23.194 177.774 24.151V25.6155C177.774 26.5725 178.045 27.3458 178.586 27.9355C179.128 28.5155 179.848 28.8055 180.747 28.8055ZM195.067 41.464C193.53 41.464 192.288 40.971 191.341 39.985C190.403 38.999 189.934 37.7037 189.934 36.099V24.151C189.934 22.5367 190.403 21.2413 191.341 20.265C192.288 19.279 193.53 18.786 195.067 18.786C196.633 18.786 197.885 19.279 198.823 20.265C199.76 21.2413 200.229 22.5367 200.229 24.151V24.876H198.054V24.151C198.054 23.194 197.784 22.4255 197.242 21.8455C196.701 21.2558 195.981 20.961 195.082 20.961C194.183 20.961 193.463 21.2558 192.921 21.8455C192.38 22.4255 192.109 23.194 192.109 24.151V28.8345L191.718 28.3415C192.075 27.7422 192.544 27.283 193.124 26.964C193.704 26.6353 194.4 26.471 195.212 26.471C196.189 26.471 197.054 26.6933 197.808 27.138C198.562 27.5827 199.151 28.211 199.577 29.023C200.012 29.8253 200.229 30.763 200.229 31.836V36.099C200.229 37.7037 199.76 38.999 198.823 39.985C197.885 40.971 196.633 41.464 195.067 41.464ZM195.082 39.289C195.981 39.289 196.701 38.999 197.242 38.419C197.784 37.8293 198.054 37.056 198.054 36.099V31.836C198.054 30.879 197.774 30.1105 197.213 29.5305C196.662 28.9408 195.928 28.646 195.009 28.646C194.101 28.646 193.39 28.936 192.878 29.516C192.365 30.096 192.109 30.8645 192.109 31.8215V36.099C192.109 37.056 192.38 37.8293 192.921 38.419C193.463 38.999 194.183 39.289 195.082 39.289Z" fill="#FEEFEF"/>
</g>
</g>
<defs>
<filter id="filter0_d_1_189" x="23.551" y="18.786" width="180.678" height="35.434" filterUnits="userSpaceOnUse" color-interpolation-filters="sRGB">
<feFlood flood-opacity="0" result="BackgroundImageFix"/>
<feColorMatrix in="SourceAlpha" type="matrix" values="0 0 0 0 0 0 0 0 0 0 0 0 0 0 0 0 0 0 127 0" result="hardAlpha"/>
<feOffset dy="4"/>
<feGaussianBlur stdDeviation="2"/>
<feComposite in2="hardAlpha" operator="out"/>
<feColorMatrix type="matrix" values="0 0 0 0 0 0 0 0 0 0 0 0 0 0 0 0 0 0 0.25 0"/>
<feBlend mode="normal" in2="BackgroundImageFix" result="effect1_dropShadow_1_189"/>
<feBlend mode="normal" in="SourceGraphic" in2="effect1_dropShadow_1_189" result="shape"/>
</filter>
<clipPath id="clip0_1_189">
<rect width="800" height="61" fill="white"/>
</clipPath>
</defs>
</svg>
