<svg width="800" height="61" viewBox="0 0 800 61" fill="none" xmlns="http://www.w3.org/2000/svg">
<rect width="800" height="61" fill="#0D2045"/>
<rect width="412" height="44" transform="translate(203 10)" fill="#0D2045"/>
<path d="M219.626 38V23H221.526V30.6H224.626V23H226.526V38H224.626V32.5H221.526V38H219.626ZM232.661 38.25C231.974 38.25 231.371 38.1 230.851 37.8C230.331 37.5 229.924 37.08 229.631 36.54C229.344 36 229.201 35.3733 229.201 34.66V30.43C229.201 29.7167 229.344 29.09 229.631 28.55C229.924 28.01 230.331 27.5933 230.851 27.3C231.371 27 231.974 26.85 232.661 26.85C233.701 26.85 234.534 27.18 235.161 27.84C235.787 28.4933 236.101 29.3567 236.101 30.43V34.66C236.101 35.7333 235.787 36.6 235.161 37.26C234.534 37.92 233.701 38.25 232.661 38.25ZM232.661 36.45C233.174 36.45 233.574 36.2933 233.861 35.98C234.154 35.6667 234.301 35.26 234.301 34.76V30.33C234.301 29.8233 234.154 29.4167 233.861 29.11C233.574 28.8033 233.174 28.65 232.661 28.65C232.154 28.65 231.751 28.8033 231.451 29.11C231.151 29.4167 231.001 29.8233 231.001 30.33V34.76C231.001 35.26 231.151 35.6667 231.451 35.98C231.751 36.2933 232.154 36.45 232.661 36.45ZM238.466 38V27.1H240.266V28.62L239.956 28.22C240.196 27.78 240.516 27.4433 240.916 27.21C241.323 26.97 241.806 26.85 242.366 26.85C243.013 26.85 243.589 27.0167 244.096 27.35C244.609 27.6833 244.956 28.21 245.136 28.93L244.686 28.85C244.886 28.23 245.209 27.7433 245.656 27.39C246.109 27.03 246.679 26.85 247.366 26.85C247.899 26.85 248.386 26.9667 248.826 27.2C249.266 27.4267 249.616 27.7767 249.876 28.25C250.136 28.7167 250.266 29.31 250.266 30.03V38H248.466V30.33C248.466 29.8233 248.323 29.4167 248.036 29.11C247.749 28.8033 247.363 28.65 246.876 28.65C246.383 28.65 245.989 28.8033 245.696 29.11C245.409 29.4167 245.266 29.8233 245.266 30.33V38H243.466V30.33C243.466 29.8233 243.323 29.4167 243.036 29.11C242.749 28.8033 242.363 28.65 241.876 28.65C241.383 28.65 240.989 28.8033 240.696 29.11C240.409 29.4167 240.266 29.8233 240.266 30.33V38H238.466ZM255.981 38.25C255.294 38.25 254.691 38.1 254.171 37.8C253.651 37.5 253.244 37.08 252.951 36.54C252.664 36 252.521 35.3733 252.521 34.66V30.43C252.521 29.7167 252.664 29.09 252.951 28.55C253.244 28.01 253.651 27.5933 254.171 27.3C254.691 27 255.294 26.85 255.981 26.85C257.021 26.85 257.854 27.18 258.481 27.84C259.108 28.4933 259.421 29.3567 259.421 30.43V32.91H254.021V31.21H257.621V30.33C257.621 29.8233 257.474 29.4167 257.181 29.11C256.894 28.8033 256.494 28.65 255.981 28.65C255.474 28.65 255.071 28.8033 254.771 29.11C254.471 29.4167 254.321 29.8233 254.321 30.33V34.76C254.321 35.26 254.471 35.6667 254.771 35.98C255.071 36.2933 255.474 36.45 255.981 36.45C256.494 36.45 256.894 36.2933 257.181 35.98C257.474 35.6667 257.621 35.26 257.621 34.76V34.46H259.421V34.66C259.421 35.7333 259.108 36.6 258.481 37.26C257.854 37.92 257.021 38.25 255.981 38.25Z" fill="#DD1B1B"/>
<path d="M287.345 38V23H289.245V30.6H292.345V23H294.245V38H292.345V32.5H289.245V38H287.345ZM297.24 38V27.1H299.04V38H297.24ZM297.24 26.03V23.6H299.04V26.03H297.24ZM304.663 38.25C303.609 38.25 302.769 37.9367 302.143 37.31C301.516 36.6833 301.203 35.86 301.203 34.84V34.54H303.003V34.95C303.003 35.3967 303.149 35.76 303.443 36.04C303.743 36.3133 304.143 36.45 304.643 36.45C305.123 36.45 305.503 36.31 305.783 36.03C306.063 35.75 306.203 35.35 306.203 34.83C306.203 34.5033 306.143 34.25 306.023 34.07C305.909 33.89 305.733 33.75 305.493 33.65C305.259 33.55 304.966 33.4633 304.613 33.39C303.933 33.2367 303.336 33.0733 302.823 32.9C302.316 32.7267 301.919 32.45 301.633 32.07C301.346 31.6833 301.203 31.11 301.203 30.35C301.203 29.2233 301.509 28.36 302.123 27.76C302.743 27.1533 303.559 26.85 304.573 26.85C305.633 26.85 306.469 27.16 307.083 27.78C307.696 28.4 308.003 29.2233 308.003 30.25V30.54H306.203V30.15C306.203 29.69 306.059 29.3267 305.773 29.06C305.486 28.7867 305.096 28.65 304.603 28.65C304.116 28.65 303.726 28.79 303.433 29.07C303.146 29.3433 303.003 29.7433 303.003 30.27C303.003 30.59 303.063 30.84 303.183 31.02C303.303 31.2 303.483 31.34 303.723 31.44C303.963 31.5333 304.259 31.62 304.613 31.7C305.279 31.84 305.866 32 306.373 32.18C306.879 32.3533 307.276 32.6333 307.563 33.02C307.856 33.4 308.003 33.9767 308.003 34.75C308.003 35.87 307.699 36.7333 307.093 37.34C306.486 37.9467 305.676 38.25 304.663 38.25ZM314.25 38.13C313.21 38.13 312.373 37.81 311.74 37.17C311.113 36.5233 310.8 35.6467 310.8 34.54V28.77H308.9V27.09H310.8V24.4H312.6V27.09H315.1V28.77H312.6V34.54C312.6 35.08 312.75 35.5133 313.05 35.84C313.35 36.1667 313.75 36.33 314.25 36.33H315.1V38.13H314.25ZM320.028 38.25C319.342 38.25 318.738 38.1 318.218 37.8C317.698 37.5 317.292 37.08 316.998 36.54C316.712 36 316.568 35.3733 316.568 34.66V30.43C316.568 29.7167 316.712 29.09 316.998 28.55C317.292 28.01 317.698 27.5933 318.218 27.3C318.738 27 319.342 26.85 320.028 26.85C321.068 26.85 321.902 27.18 322.528 27.84C323.155 28.4933 323.468 29.3567 323.468 30.43V34.66C323.468 35.7333 323.155 36.6 322.528 37.26C321.902 37.92 321.068 38.25 320.028 38.25ZM320.028 36.45C320.542 36.45 320.942 36.2933 321.228 35.98C321.522 35.6667 321.668 35.26 321.668 34.76V30.33C321.668 29.8233 321.522 29.4167 321.228 29.11C320.942 28.8033 320.542 28.65 320.028 28.65C319.522 28.65 319.118 28.8033 318.818 29.11C318.518 29.4167 318.368 29.8233 318.368 30.33V34.76C318.368 35.26 318.518 35.6667 318.818 35.98C319.118 36.2933 319.522 36.45 320.028 36.45ZM325.834 38V27.1H327.634V28.74L327.314 28.36C327.554 27.9 327.88 27.5533 328.294 27.32C328.714 27.0867 329.194 26.97 329.734 26.97H330.214V28.77H329.244C328.75 28.77 328.357 28.9133 328.064 29.2C327.777 29.4867 327.634 29.8833 327.634 30.39V38H325.834ZM332.555 41.6L333.525 38.15L330.415 27.1H332.375L334.705 35.84H334.295L336.575 27.1H338.545L334.435 41.6H332.555Z" fill="#DD1B1B"/>
<g filter="url(#filter0_d_1_189)">
<rect x="359" y="6" width="99" height="52" rx="8" fill="#F0FAFF" shape-rendering="crispEdges"/>
<path d="M384.248 37V25H387.128C388.019 25 388.728 25.272 389.256 25.816C389.784 26.3547 390.048 27.0693 390.048 27.96V34.04C390.048 34.9253 389.784 35.64 389.256 36.184C388.728 36.728 388.019 37 387.128 37H384.248ZM386.088 35.16H387.128C387.464 35.16 387.728 35.0587 387.92 34.856C388.112 34.648 388.208 34.376 388.208 34.04V27.96C388.208 27.624 388.112 27.3547 387.92 27.152C387.728 26.944 387.464 26.84 387.128 26.84H386.088V35.16ZM392.071 37V28.24H393.791V37H392.071ZM392.071 27.488V25.48H393.791V27.488H392.071ZM398.213 37.2C397.349 37.2 396.666 36.9413 396.165 36.424C395.664 35.9013 395.413 35.2133 395.413 34.36V34.16H397.133V34.48C397.133 34.784 397.226 35.0267 397.413 35.208C397.6 35.3893 397.856 35.48 398.181 35.48C398.506 35.48 398.76 35.3867 398.941 35.2C399.122 35.008 399.213 34.736 399.213 34.384C399.213 34.1813 399.176 34.0187 399.101 33.896C399.032 33.7733 398.922 33.6747 398.773 33.6C398.624 33.5253 398.424 33.4613 398.173 33.408C397.618 33.2853 397.133 33.152 396.717 33.008C396.301 32.864 395.978 32.6373 395.749 32.328C395.525 32.0133 395.413 31.544 395.413 30.92C395.413 29.992 395.661 29.28 396.157 28.784C396.658 28.2827 397.32 28.032 398.141 28.032C399.005 28.032 399.685 28.2933 400.181 28.816C400.682 29.3333 400.933 30.0187 400.933 30.872V31.072H399.213V30.752C399.213 30.4533 399.12 30.2133 398.933 30.032C398.752 29.8453 398.496 29.752 398.165 29.752C397.845 29.752 397.592 29.848 397.405 30.04C397.224 30.2267 397.133 30.4933 397.133 30.84C397.133 31.0427 397.168 31.2053 397.237 31.328C397.306 31.4507 397.418 31.5493 397.573 31.624C397.728 31.6987 397.928 31.7627 398.173 31.816C398.712 31.9333 399.186 32.064 399.597 32.208C400.013 32.3467 400.338 32.5733 400.573 32.888C400.813 33.2027 400.933 33.6773 400.933 34.312C400.933 35.2347 400.685 35.9467 400.189 36.448C399.698 36.9493 399.04 37.2 398.213 37.2ZM405.067 37.2C404.507 37.2 404.019 37.08 403.603 36.84C403.187 36.5947 402.862 36.2533 402.627 35.816C402.398 35.3787 402.283 34.8693 402.283 34.288V30.944C402.283 30.368 402.398 29.8613 402.627 29.424C402.862 28.9813 403.187 28.64 403.603 28.4C404.019 28.1547 404.507 28.032 405.067 28.032C405.91 28.032 406.582 28.2987 407.083 28.832C407.59 29.3653 407.843 30.0693 407.843 30.944V31.104H406.123V30.824C406.123 30.504 406.03 30.2453 405.843 30.048C405.657 29.8507 405.398 29.752 405.067 29.752C404.737 29.752 404.475 29.8507 404.283 30.048C404.097 30.2453 404.003 30.504 404.003 30.824V34.408C404.003 34.728 404.097 34.9867 404.283 35.184C404.475 35.3813 404.737 35.48 405.067 35.48C405.398 35.48 405.657 35.3813 405.843 35.184C406.03 34.9867 406.123 34.728 406.123 34.408V34.128H407.843V34.288C407.843 35.1573 407.59 35.8613 407.083 36.4C406.582 36.9333 405.91 37.2 405.067 37.2ZM411.864 37.2C411.304 37.2 410.816 37.08 410.4 36.84C409.984 36.5947 409.659 36.2533 409.424 35.816C409.195 35.3787 409.08 34.8693 409.08 34.288V30.944C409.08 30.368 409.195 29.8613 409.424 29.424C409.659 28.9813 409.984 28.64 410.4 28.4C410.816 28.1547 411.304 28.032 411.864 28.032C412.707 28.032 413.379 28.2987 413.88 28.832C414.387 29.3653 414.64 30.0693 414.64 30.944V34.288C414.64 35.1573 414.387 35.8613 413.88 36.4C413.379 36.9333 412.707 37.2 411.864 37.2ZM411.864 35.48C412.195 35.48 412.453 35.3813 412.64 35.184C412.827 34.9867 412.92 34.728 412.92 34.408V30.824C412.92 30.504 412.827 30.2453 412.64 30.048C412.453 29.8507 412.195 29.752 411.864 29.752C411.533 29.752 411.272 29.8507 411.08 30.048C410.893 30.2453 410.8 30.504 410.8 30.824V34.408C410.8 34.728 410.893 34.9867 411.08 35.184C411.272 35.3813 411.533 35.48 411.864 35.48ZM417.806 37L415.462 28.24H417.326L419.014 35.04H418.63L420.27 28.24H422.134L419.83 37H417.806ZM425.708 37.2C425.148 37.2 424.66 37.08 424.244 36.84C423.828 36.5947 423.503 36.2533 423.268 35.816C423.039 35.3787 422.924 34.8693 422.924 34.288V30.944C422.924 30.368 423.039 29.8613 423.268 29.424C423.503 28.9813 423.828 28.64 424.244 28.4C424.66 28.1547 425.148 28.032 425.708 28.032C426.551 28.032 427.223 28.2987 427.724 28.832C428.231 29.3653 428.484 30.0693 428.484 30.944V33.016H424.396V31.416H426.764V30.824C426.764 30.504 426.671 30.2453 426.484 30.048C426.297 29.8507 426.039 29.752 425.708 29.752C425.377 29.752 425.116 29.8507 424.924 30.048C424.737 30.2453 424.644 30.504 424.644 30.824V34.408C424.644 34.728 424.737 34.9867 424.924 35.184C425.116 35.3813 425.377 35.48 425.708 35.48C426.039 35.48 426.297 35.3813 426.484 35.184C426.671 34.9867 426.764 34.728 426.764 34.408V34.128H428.484V34.288C428.484 35.1573 428.231 35.8613 427.724 36.4C427.223 36.9333 426.551 37.2 425.708 37.2ZM430.211 37V28.24H431.931V29.616L431.619 29.248C431.806 28.8747 432.062 28.5947 432.387 28.408C432.712 28.2213 433.088 28.128 433.515 28.128H433.907V29.848H432.979C432.654 29.848 432.398 29.936 432.211 30.112C432.024 30.2827 431.931 30.528 431.931 30.848V37H430.211Z" fill="#090303"/>
</g>
<path d="M475.376 38H473.476V23H475.376V38ZM478.371 38V27.1H480.171V28.62L479.861 28.22C480.101 27.78 480.421 27.4433 480.821 27.21C481.228 26.97 481.711 26.85 482.271 26.85C482.918 26.85 483.495 27.0167 484.001 27.35C484.515 27.6833 484.861 28.21 485.041 28.93L484.591 28.85C484.791 28.23 485.115 27.7433 485.561 27.39C486.015 27.03 486.585 26.85 487.271 26.85C487.805 26.85 488.291 26.9667 488.731 27.2C489.171 27.4267 489.521 27.7767 489.781 28.25C490.041 28.7167 490.171 29.31 490.171 30.03V38H488.371V30.33C488.371 29.8233 488.228 29.4167 487.941 29.11C487.655 28.8033 487.268 28.65 486.781 28.65C486.288 28.65 485.895 28.8033 485.601 29.11C485.315 29.4167 485.171 29.8233 485.171 30.33V38H483.371V30.33C483.371 29.8233 483.228 29.4167 482.941 29.11C482.655 28.8033 482.268 28.65 481.781 28.65C481.288 28.65 480.895 28.8033 480.601 29.11C480.315 29.4167 480.171 29.8233 480.171 30.33V38H478.371ZM492.746 41.6V27.1H494.546V28.6L494.236 28.19C494.47 27.7633 494.786 27.4333 495.186 27.2C495.586 26.9667 496.07 26.85 496.636 26.85C497.183 26.85 497.68 26.97 498.126 27.21C498.58 27.45 498.943 27.8267 499.216 28.34C499.49 28.8533 499.626 29.5167 499.626 30.33V34.76C499.626 35.5733 499.49 36.2367 499.216 36.75C498.943 37.2633 498.58 37.6433 498.126 37.89C497.68 38.13 497.183 38.25 496.636 38.25C496.07 38.25 495.586 38.1333 495.186 37.9C494.786 37.66 494.47 37.33 494.236 36.91L494.546 36.5V41.6H492.746ZM496.176 36.45C496.696 36.45 497.1 36.2933 497.386 35.98C497.68 35.6667 497.826 35.26 497.826 34.76V30.33C497.826 29.8233 497.68 29.4167 497.386 29.11C497.1 28.8033 496.696 28.65 496.176 28.65C495.663 28.65 495.263 28.8033 494.976 29.11C494.69 29.4167 494.546 29.8233 494.546 30.33V34.77C494.546 35.27 494.69 35.6767 494.976 35.99C495.263 36.2967 495.663 36.45 496.176 36.45ZM504.413 38.25C503.453 38.25 502.71 37.9733 502.183 37.42C501.663 36.86 501.403 36.15 501.403 35.29C501.403 34.7767 501.49 34.3467 501.663 34C501.843 33.6467 502.073 33.36 502.353 33.14C502.64 32.9133 502.946 32.7267 503.273 32.58C503.66 32.4067 504.053 32.2667 504.453 32.16C504.86 32.0467 505.233 31.9333 505.573 31.82C505.913 31.7 506.186 31.5467 506.393 31.36C506.606 31.1667 506.713 30.9033 506.713 30.57V30.33C506.713 29.8233 506.563 29.4167 506.263 29.11C505.97 28.8033 505.566 28.65 505.053 28.65C504.546 28.65 504.146 28.8033 503.853 29.11C503.56 29.4167 503.413 29.8233 503.413 30.33V30.73H501.613V30.43C501.613 29.3567 501.926 28.4933 502.553 27.84C503.186 27.18 504.02 26.85 505.053 26.85C505.746 26.85 506.35 27 506.863 27.3C507.383 27.5933 507.786 28.01 508.073 28.55C508.366 29.09 508.513 29.7167 508.513 30.43V38H506.713V36.43L507.023 36.83C506.79 37.2833 506.45 37.6333 506.003 37.88C505.563 38.1267 505.033 38.25 504.413 38.25ZM504.893 36.56C505.44 36.56 505.88 36.4067 506.213 36.1C506.546 35.7867 506.713 35.32 506.713 34.7V32.91C506.386 33.13 506.013 33.2833 505.593 33.37C505.18 33.4567 504.776 33.5733 504.383 33.72C504.03 33.8533 503.743 34.0267 503.523 34.24C503.31 34.4533 503.203 34.7467 503.203 35.12C503.203 35.5267 503.346 35.87 503.633 36.15C503.926 36.4233 504.346 36.56 504.893 36.56ZM514.168 38.25C513.481 38.25 512.878 38.1 512.358 37.8C511.838 37.5 511.431 37.08 511.138 36.54C510.851 36 510.708 35.3733 510.708 34.66V30.43C510.708 29.7167 510.851 29.09 511.138 28.55C511.431 28.01 511.838 27.5933 512.358 27.3C512.878 27 513.481 26.85 514.168 26.85C515.208 26.85 516.041 27.18 516.668 27.84C517.294 28.4933 517.608 29.3567 517.608 30.43V30.63H515.808V30.33C515.808 29.8233 515.661 29.4167 515.368 29.11C515.081 28.8033 514.681 28.65 514.168 28.65C513.661 28.65 513.258 28.8033 512.958 29.11C512.658 29.4167 512.508 29.8233 512.508 30.33V34.76C512.508 35.26 512.658 35.6667 512.958 35.98C513.258 36.2933 513.661 36.45 514.168 36.45C514.681 36.45 515.081 36.2933 515.368 35.98C515.661 35.6667 515.808 35.26 515.808 34.76V34.46H517.608V34.66C517.608 35.7333 517.294 36.6 516.668 37.26C516.041 37.92 515.208 38.25 514.168 38.25ZM523.701 38.13C522.661 38.13 521.825 37.81 521.191 37.17C520.565 36.5233 520.251 35.6467 520.251 34.54V28.77H518.351V27.09H520.251V24.4H522.051V27.09H524.551V28.77H522.051V34.54C522.051 35.08 522.201 35.5133 522.501 35.84C522.801 36.1667 523.201 36.33 523.701 36.33H524.551V38.13H523.701Z" fill="#DD1B1B"/>
<path d="M541.71 38.32C540.623 38.32 539.75 37.98 539.09 37.3C538.437 36.62 538.11 35.7267 538.11 34.62V34.02H540.01V34.62C540.01 35.16 540.163 35.5967 540.47 35.93C540.777 36.2567 541.19 36.42 541.71 36.42C542.23 36.42 542.643 36.2567 542.95 35.93C543.257 35.5967 543.41 35.16 543.41 34.62V33.36C543.41 33.0533 543.4 32.8133 543.38 32.64C543.36 32.46 543.3 32.3167 543.2 32.21C543.1 32.1033 542.933 32.0033 542.7 31.91C542.467 31.81 542.137 31.6933 541.71 31.56C540.81 31.2733 540.113 31.0333 539.62 30.84C539.127 30.64 538.773 30.43 538.56 30.21C538.347 29.9833 538.217 29.69 538.17 29.33C538.13 28.97 538.11 28.48 538.11 27.86V26.38C538.11 25.2667 538.437 24.3733 539.09 23.7C539.75 23.02 540.623 22.68 541.71 22.68C542.803 22.68 543.677 23.02 544.33 23.7C544.983 24.3733 545.31 25.2667 545.31 26.38V26.98H543.41V26.38C543.41 25.84 543.257 25.4067 542.95 25.08C542.643 24.7467 542.23 24.58 541.71 24.58C541.19 24.58 540.777 24.7467 540.47 25.08C540.163 25.4067 540.01 25.84 540.01 26.38V27.86C540.01 28.16 540.02 28.4 540.04 28.58C540.067 28.7533 540.127 28.8967 540.22 29.01C540.32 29.1167 540.487 29.2167 540.72 29.31C540.96 29.4033 541.29 29.52 541.71 29.66C542.61 29.9467 543.307 30.1867 543.8 30.38C544.293 30.5733 544.647 30.7833 544.86 31.01C545.073 31.23 545.2 31.52 545.24 31.88C545.287 32.24 545.31 32.7333 545.31 33.36V34.62C545.31 35.7267 544.983 36.62 544.33 37.3C543.677 37.98 542.803 38.32 541.71 38.32ZM547.735 38V27.1H549.535V38H547.735ZM547.735 26.03V23.6H549.535V26.03H547.735ZM556.287 38.13C555.247 38.13 554.411 37.81 553.777 37.17C553.151 36.5233 552.837 35.6467 552.837 34.54V28.77H550.937V27.09H552.837V24.4H554.637V27.09H557.137V28.77H554.637V34.54C554.637 35.08 554.787 35.5133 555.087 35.84C555.387 36.1667 555.787 36.33 556.287 36.33H557.137V38.13H556.287ZM562.066 38.25C561.379 38.25 560.776 38.1 560.256 37.8C559.736 37.5 559.329 37.08 559.036 36.54C558.749 36 558.606 35.3733 558.606 34.66V30.43C558.606 29.7167 558.749 29.09 559.036 28.55C559.329 28.01 559.736 27.5933 560.256 27.3C560.776 27 561.379 26.85 562.066 26.85C563.106 26.85 563.939 27.18 564.566 27.84C565.193 28.4933 565.506 29.3567 565.506 30.43V32.91H560.106V31.21H563.706V30.33C563.706 29.8233 563.559 29.4167 563.266 29.11C562.979 28.8033 562.579 28.65 562.066 28.65C561.559 28.65 561.156 28.8033 560.856 29.11C560.556 29.4167 560.406 29.8233 560.406 30.33V34.76C560.406 35.26 560.556 35.6667 560.856 35.98C561.156 36.2933 561.559 36.45 562.066 36.45C562.579 36.45 562.979 36.2933 563.266 35.98C563.559 35.6667 563.706 35.26 563.706 34.76V34.46H565.506V34.66C565.506 35.7333 565.193 36.6 564.566 37.26C563.939 37.92 563.106 38.25 562.066 38.25ZM572.266 38V27.1H574.066V38H572.266ZM572.266 26.03V23.6H574.066V26.03H572.266ZM576.738 38V27.1H578.538V28.65L578.218 28.29C578.458 27.8167 578.785 27.46 579.198 27.22C579.618 26.9733 580.102 26.85 580.648 26.85C581.528 26.85 582.228 27.16 582.748 27.78C583.275 28.4 583.538 29.25 583.538 30.33V38H581.738V30.33C581.738 29.8233 581.595 29.4167 581.308 29.11C581.022 28.8033 580.635 28.65 580.148 28.65C579.655 28.65 579.262 28.8033 578.968 29.11C578.682 29.4167 578.538 29.8233 578.538 30.33V38H576.738ZM586.834 38V28.78H584.824V27.1H586.834V26.39C586.834 25.69 586.977 25.07 587.264 24.53C587.551 23.99 587.951 23.5667 588.464 23.26C588.984 22.9533 589.594 22.8 590.294 22.8H591.164V24.6H590.294C589.787 24.6 589.384 24.7633 589.084 25.09C588.784 25.4167 588.634 25.85 588.634 26.39V27.1H591.164V28.78H588.634V38H586.834ZM595.718 38.25C595.032 38.25 594.428 38.1 593.908 37.8C593.388 37.5 592.982 37.08 592.688 36.54C592.402 36 592.258 35.3733 592.258 34.66V30.43C592.258 29.7167 592.402 29.09 592.688 28.55C592.982 28.01 593.388 27.5933 593.908 27.3C594.428 27 595.032 26.85 595.718 26.85C596.758 26.85 597.592 27.18 598.218 27.84C598.845 28.4933 599.158 29.3567 599.158 30.43V34.66C599.158 35.7333 598.845 36.6 598.218 37.26C597.592 37.92 596.758 38.25 595.718 38.25ZM595.718 36.45C596.232 36.45 596.632 36.2933 596.918 35.98C597.212 35.6667 597.358 35.26 597.358 34.76V30.33C597.358 29.8233 597.212 29.4167 596.918 29.11C596.632 28.8033 596.232 28.65 595.718 28.65C595.212 28.65 594.808 28.8033 594.508 29.11C594.208 29.4167 594.058 29.8233 594.058 30.33V34.76C594.058 35.26 594.208 35.6667 594.508 35.98C594.808 36.2933 595.212 36.45 595.718 36.45Z" fill="#DD1B1B"/>
<g filter="url(#filter1_d_1_189)">
<path d="M31.292 41V21.425H27.551V19.25H37.1935V21.425H33.467V41H31.292ZM39.7924 41V19.25H41.8949V27.3265L41.5469 26.877C41.9046 26.2487 42.3831 25.7605 42.9824 25.4125C43.5914 25.0645 44.3067 24.8905 45.1284 24.8905C45.9597 24.8905 46.7041 25.079 47.3614 25.456C48.0284 25.8233 48.5504 26.3647 48.9274 27.08C49.3141 27.7953 49.5074 28.6702 49.5074 29.7045V41H47.4049V29.922C47.4049 29.0327 47.1536 28.3222 46.6509 27.7905C46.1579 27.2588 45.5006 26.993 44.6789 26.993C43.8379 26.993 43.1612 27.2588 42.6489 27.7905C42.1462 28.3222 41.8949 29.0327 41.8949 29.922V41H39.7924ZM57.9668 41.348C56.9808 41.348 56.1156 41.1353 55.3713 40.71C54.627 40.2847 54.0421 39.6902 53.6168 38.9265C53.1915 38.1532 52.9788 37.2542 52.9788 36.2295V30.009C52.9788 29.0037 53.1915 28.1192 53.6168 27.3555C54.0421 26.5822 54.627 25.9828 55.3713 25.5575C56.1156 25.1225 56.9808 24.905 57.9668 24.905C59.4458 24.905 60.6396 25.3738 61.5483 26.3115C62.457 27.2492 62.9113 28.4817 62.9113 30.009V33.4455H54.6608V31.4155H60.8088V29.9365C60.8088 29.0568 60.5526 28.3512 60.0403 27.8195C59.5376 27.2782 58.8465 27.0075 57.9668 27.0075C57.0871 27.0075 56.3863 27.2782 55.8643 27.8195C55.3423 28.3512 55.0813 29.0568 55.0813 29.9365V36.302C55.0813 37.1817 55.3423 37.8922 55.8643 38.4335C56.3863 38.9748 57.0871 39.2455 57.9668 39.2455C58.8465 39.2455 59.5376 38.9748 60.0403 38.4335C60.5526 37.8922 60.8088 37.1817 60.8088 36.302V35.9395H62.9113V36.2295C62.9113 37.7568 62.457 38.9942 61.5483 39.9415C60.6396 40.8792 59.4458 41.348 57.9668 41.348ZM74.9053 41V21.425H71.1643V19.25H80.8068V21.425H77.0803V41H74.9053ZM87.3633 41.348C86.3773 41.348 85.5121 41.1353 84.7678 40.71C84.0234 40.2847 83.4386 39.6902 83.0133 38.9265C82.5879 38.1532 82.3753 37.2542 82.3753 36.2295V30.009C82.3753 29.0037 82.5879 28.1192 83.0133 27.3555C83.4386 26.5822 84.0234 25.9828 84.7678 25.5575C85.5121 25.1225 86.3773 24.905 87.3633 24.905C88.8423 24.905 90.0361 25.3738 90.9448 26.3115C91.8534 27.2492 92.3078 28.4817 92.3078 30.009V36.2295C92.3078 37.7568 91.8534 38.9942 90.9448 39.9415C90.0361 40.8792 88.8423 41.348 87.3633 41.348ZM87.3633 39.2455C88.2429 39.2455 88.9341 38.9748 89.4368 38.4335C89.9491 37.8922 90.2053 37.1817 90.2053 36.302V29.9365C90.2053 29.0568 89.9491 28.3512 89.4368 27.8195C88.9341 27.2782 88.2429 27.0075 87.3633 27.0075C86.4836 27.0075 85.7828 27.2782 85.2608 27.8195C84.7388 28.3512 84.4778 29.0568 84.4778 29.9365V36.302C84.4778 37.1817 84.7388 37.8922 85.2608 38.4335C85.7828 38.9748 86.4836 39.2455 87.3633 39.2455ZM97.2027 46.22L98.6237 41.319L94.0417 25.2675H96.3327L100.059 38.5495H99.5517L103.22 25.2675H105.54L99.4647 46.22H97.2027ZM112.229 41.348C111.243 41.348 110.377 41.1353 109.633 40.71C108.889 40.2847 108.304 39.6902 107.879 38.9265C107.453 38.1532 107.241 37.2542 107.241 36.2295V30.009C107.241 29.0037 107.453 28.1192 107.879 27.3555C108.304 26.5822 108.889 25.9828 109.633 25.5575C110.377 25.1225 111.243 24.905 112.229 24.905C113.708 24.905 114.901 25.3738 115.81 26.3115C116.719 27.2492 117.173 28.4817 117.173 30.009V36.2295C117.173 37.7568 116.719 38.9942 115.81 39.9415C114.901 40.8792 113.708 41.348 112.229 41.348ZM112.229 39.2455C113.108 39.2455 113.799 38.9748 114.302 38.4335C114.814 37.8922 115.071 37.1817 115.071 36.302V29.9365C115.071 29.0568 114.814 28.3512 114.302 27.8195C113.799 27.2782 113.108 27.0075 112.229 27.0075C111.349 27.0075 110.648 27.2782 110.126 27.8195C109.604 28.3512 109.343 29.0568 109.343 29.9365V36.302C109.343 37.1817 109.604 37.8922 110.126 38.4335C110.648 38.9748 111.349 39.2455 112.229 39.2455ZM126.747 41.174C125.248 41.174 124.045 40.7003 123.136 39.753C122.237 38.796 121.788 37.5152 121.788 35.9105V27.225H118.96V25.2385H121.788V21.28H123.89V25.2385H127.805V27.225H123.89V35.9105C123.89 36.8675 124.151 37.636 124.673 38.216C125.195 38.7863 125.886 39.0715 126.747 39.0715H127.805V41.174H126.747ZM134.07 41.348C132.62 41.348 131.499 40.9468 130.706 40.1445C129.913 39.3422 129.517 38.3272 129.517 37.0995C129.517 36.3358 129.657 35.7027 129.938 35.2C130.218 34.6877 130.576 34.272 131.011 33.953C131.455 33.634 131.924 33.3778 132.417 33.1845C133.007 32.9428 133.606 32.7543 134.215 32.619C134.834 32.474 135.404 32.3242 135.926 32.1695C136.448 32.0052 136.869 31.7828 137.188 31.5025C137.507 31.2222 137.666 30.8258 137.666 30.3135V29.9365C137.666 29.0568 137.4 28.3512 136.869 27.8195C136.347 27.2782 135.651 27.0075 134.781 27.0075C133.901 27.0075 133.205 27.2782 132.693 27.8195C132.19 28.3512 131.939 29.0568 131.939 29.9365V30.3715H129.836V30.009C129.836 28.4817 130.29 27.2492 131.199 26.3115C132.108 25.3738 133.302 24.905 134.781 24.905C135.757 24.905 136.617 25.1225 137.362 25.5575C138.116 25.9828 138.705 26.5773 139.131 27.341C139.556 28.1047 139.769 28.994 139.769 30.009V41H137.666V38.825L138.014 39.289C137.647 39.9463 137.13 40.4538 136.463 40.8115C135.796 41.1692 134.998 41.348 134.07 41.348ZM134.505 39.347C135.491 39.347 136.264 39.0715 136.825 38.5205C137.386 37.9598 137.666 37.1623 137.666 36.128V33.344C137.076 33.7113 136.419 33.9627 135.694 34.098C134.969 34.2237 134.278 34.3977 133.621 34.62C133.041 34.8133 132.562 35.0888 132.185 35.4465C131.808 35.7945 131.62 36.2923 131.62 36.94C131.62 37.6457 131.871 38.2257 132.374 38.68C132.876 39.1247 133.587 39.347 134.505 39.347ZM148.569 41L153.296 19.25H155.616L160.329 41H158.081L157.153 36.65H151.745L150.817 41H148.569ZM152.151 34.475H156.747L154.282 22.3675H154.63L152.151 34.475ZM172.45 19.25V21.425H165.852V29.0375H171.667V31.2125H165.852V38.825H172.45V41H163.677V19.25H172.45ZM180.747 41.464C179.2 41.464 177.953 40.971 177.006 39.985C176.068 38.999 175.599 37.7037 175.599 36.099V34.1705C175.599 33.1072 175.807 32.1792 176.223 31.3865C176.639 30.5842 177.223 29.9607 177.977 29.516L177.992 30.241C177.238 29.8157 176.648 29.2067 176.223 28.414C175.807 27.6117 175.599 26.6788 175.599 25.6155V24.151C175.599 22.5367 176.068 21.2413 177.006 20.265C177.953 19.279 179.2 18.786 180.747 18.786C182.303 18.786 183.55 19.279 184.488 20.265C185.426 21.2413 185.894 22.5367 185.894 24.151V25.6155C185.894 26.6788 185.682 27.6117 185.256 28.414C184.841 29.2067 184.251 29.8157 183.487 30.241L183.516 29.516C184.261 29.9607 184.841 30.5842 185.256 31.3865C185.682 32.1792 185.894 33.1072 185.894 34.1705V36.099C185.894 37.7037 185.426 38.999 184.488 39.985C183.55 40.971 182.303 41.464 180.747 41.464ZM180.747 39.289C181.646 39.289 182.366 38.999 182.907 38.419C183.449 37.8293 183.719 37.056 183.719 36.099V34.1705C183.719 33.2135 183.449 32.445 182.907 31.865C182.366 31.2753 181.646 30.9805 180.747 30.9805C179.848 30.9805 179.128 31.2753 178.586 31.865C178.045 32.445 177.774 33.2135 177.774 34.1705V36.099C177.774 37.056 178.045 37.8293 178.586 38.419C179.128 38.999 179.848 39.289 180.747 39.289ZM180.747 28.8055C181.646 28.8055 182.366 28.5155 182.907 27.9355C183.449 27.3458 183.719 26.5725 183.719 25.6155V24.151C183.719 23.194 183.449 22.4255 182.907 21.8455C182.366 21.2558 181.646 20.961 180.747 20.961C179.848 20.961 179.128 21.2558 178.586 21.8455C178.045 22.4255 177.774 23.194 177.774 24.151V25.6155C177.774 26.5725 178.045 27.3458 178.586 27.9355C179.128 28.5155 179.848 28.8055 180.747 28.8055ZM195.067 41.464C193.53 41.464 192.288 40.971 191.341 39.985C190.403 38.999 189.934 37.7037 189.934 36.099V24.151C189.934 22.5367 190.403 21.2413 191.341 20.265C192.288 19.279 193.53 18.786 195.067 18.786C196.633 18.786 197.885 19.279 198.823 20.265C199.76 21.2413 200.229 22.5367 200.229 24.151V24.876H198.054V24.151C198.054 23.194 197.784 22.4255 197.242 21.8455C196.701 21.2558 195.981 20.961 195.082 20.961C194.183 20.961 193.463 21.2558 192.921 21.8455C192.38 22.4255 192.109 23.194 192.109 24.151V28.8345L191.718 28.3415C192.075 27.7422 192.544 27.283 193.124 26.964C193.704 26.6353 194.4 26.471 195.212 26.471C196.189 26.471 197.054 26.6933 197.808 27.138C198.562 27.5827 199.151 28.211 199.577 29.023C200.012 29.8253 200.229 30.763 200.229 31.836V36.099C200.229 37.7037 199.76 38.999 198.823 39.985C197.885 40.971 196.633 41.464 195.067 41.464ZM195.082 39.289C195.981 39.289 196.701 38.999 197.242 38.419C197.784 37.8293 198.054 37.056 198.054 36.099V31.836C198.054 30.879 197.774 30.1105 197.213 29.5305C196.662 28.9408 195.928 28.646 195.009 28.646C194.101 28.646 193.39 28.936 192.878 29.516C192.365 30.096 192.109 30.8645 192.109 31.8215V36.099C192.109 37.056 192.38 37.8293 192.921 38.419C193.463 38.999 194.183 39.289 195.082 39.289Z" fill="#FEEFEF"/>
</g>
<path d="M615 18H778V41H615V18Z" fill="white"/>
<defs>
<filter id="filter0_d_1_189" x="357" y="5" width="103" height="56" filterUnits="userSpaceOnUse" color-interpolation-filters="sRGB">
<feFlood flood-opacity="0" result="BackgroundImageFix"/>
<feColorMatrix in="SourceAlpha" type="matrix" values="0 0 0 0 0 0 0 0 0 0 0 0 0 0 0 0 0 0 127 0" result="hardAlpha"/>
<feOffset dy="1"/>
<feGaussianBlur stdDeviation="1"/>
<feComposite in2="hardAlpha" operator="out"/>
<feColorMatrix type="matrix" values="0 0 0 0 0 0 0 0 0 0 0 0 0 0 0 0 0 0 0.05 0"/>
<feBlend mode="normal" in2="BackgroundImageFix" result="effect1_dropShadow_1_189"/>
<feBlend mode="normal" in="SourceGraphic" in2="effect1_dropShadow_1_189" result="shape"/>
</filter>
<filter id="filter1_d_1_189" x="23.551" y="18.7859" width="180.678" height="35.4341" filterUnits="userSpaceOnUse" color-interpolation-filters="sRGB">
<feFlood flood-opacity="0" result="BackgroundImageFix"/>
<feColorMatrix in="SourceAlpha" type="matrix" values="0 0 0 0 0 0 0 0 0 0 0 0 0 0 0 0 0 0 127 0" result="hardAlpha"/>
<feOffset dy="4"/>
<feGaussianBlur stdDeviation="2"/>
<feComposite in2="hardAlpha" operator="out"/>
<feColorMatrix type="matrix" values="0 0 0 0 0 0 0 0 0 0 0 0 0 0 0 0 0 0 0.25 0"/>
<feBlend mode="normal" in2="BackgroundImageFix" result="effect1_dropShadow_1_189"/>
<feBlend mode="normal" in="SourceGraphic" in2="effect1_dropShadow_1_189" result="shape"/>
</filter>
</defs>
</svg>
